<svg width="21" height="20" viewBox="0 0 21 20" fill="none" xmlns="http://www.w3.org/2000/svg">
<mask id="path-1-inside-1_3177_5467" fill="white">
<path d="M10.1849 1.66797C5.58255 1.66797 1.85156 5.39896 1.85156 10.0013C1.85156 14.6039 5.58255 18.3346 10.1849 18.3346C14.7875 18.3346 18.5182 14.6039 18.5182 10.0013C18.5182 5.39896 14.7875 1.66797 10.1849 1.66797ZM10.1849 17.3094C6.16432 17.3094 2.89323 14.0219 2.89323 10.0013C2.89323 5.9807 6.16432 2.7096 10.1849 2.7096C14.2055 2.7096 17.4766 5.98071 17.4766 10.0013C17.4766 14.0218 14.2055 17.3094 10.1849 17.3094ZM13.8307 9.48047H10.7057V6.35547C10.7057 6.06797 10.4724 5.83464 10.1849 5.83464C9.8974 5.83464 9.66406 6.06797 9.66406 6.35547V9.48047H6.53906C6.25156 9.48047 6.01823 9.7138 6.01823 10.0013C6.01823 10.2888 6.25156 10.5221 6.53906 10.5221H9.66406V13.6471C9.66406 13.9346 9.8974 14.168 10.1849 14.168C10.4724 14.168 10.7057 13.9346 10.7057 13.6471V10.5221H13.8307C14.1182 10.5221 14.3516 10.2888 14.3516 10.0013C14.3516 9.7138 14.1182 9.48047 13.8307 9.48047Z"/>
</mask>
<path d="M10.1849 1.66797C5.58255 1.66797 1.85156 5.39896 1.85156 10.0013C1.85156 14.6039 5.58255 18.3346 10.1849 18.3346C14.7875 18.3346 18.5182 14.6039 18.5182 10.0013C18.5182 5.39896 14.7875 1.66797 10.1849 1.66797ZM10.1849 17.3094C6.16432 17.3094 2.89323 14.0219 2.89323 10.0013C2.89323 5.9807 6.16432 2.7096 10.1849 2.7096C14.2055 2.7096 17.4766 5.98071 17.4766 10.0013C17.4766 14.0218 14.2055 17.3094 10.1849 17.3094ZM13.8307 9.48047H10.7057V6.35547C10.7057 6.06797 10.4724 5.83464 10.1849 5.83464C9.8974 5.83464 9.66406 6.06797 9.66406 6.35547V9.48047H6.53906C6.25156 9.48047 6.01823 9.7138 6.01823 10.0013C6.01823 10.2888 6.25156 10.5221 6.53906 10.5221H9.66406V13.6471C9.66406 13.9346 9.8974 14.168 10.1849 14.168C10.4724 14.168 10.7057 13.9346 10.7057 13.6471V10.5221H13.8307C14.1182 10.5221 14.3516 10.2888 14.3516 10.0013C14.3516 9.7138 14.1182 9.48047 13.8307 9.48047Z" fill="#3E495A"/>
<path d="M10.7057 9.48047H8.70573V11.4805H10.7057V9.48047ZM9.66406 9.48047V11.4805H11.6641V9.48047H9.66406ZM9.66406 10.5221H11.6641V8.52214H9.66406V10.5221ZM10.7057 10.5221V8.52214H8.70573V10.5221H10.7057ZM10.1849 -0.332031C4.47798 -0.332031 -0.148438 4.29439 -0.148438 10.0013H3.85156C3.85156 6.50353 6.68712 3.66797 10.1849 3.66797V-0.332031ZM-0.148438 10.0013C-0.148438 15.7085 4.47802 20.3346 10.1849 20.3346V16.3346C6.68708 16.3346 3.85156 13.4993 3.85156 10.0013H-0.148438ZM10.1849 20.3346C15.8921 20.3346 20.5182 15.7085 20.5182 10.0013H16.5182C16.5182 13.4993 13.6829 16.3346 10.1849 16.3346V20.3346ZM20.5182 10.0013C20.5182 4.29443 15.8921 -0.332031 10.1849 -0.332031V3.66797C13.6829 3.66797 16.5182 6.50349 16.5182 10.0013H20.5182ZM10.1849 15.3094C7.27474 15.3094 4.89323 12.9232 4.89323 10.0013H0.893229C0.893229 15.1206 5.0539 19.3094 10.1849 19.3094V15.3094ZM4.89323 10.0013C4.89323 7.08527 7.26889 4.7096 10.1849 4.7096V0.709603C5.05975 0.709603 0.893229 4.87613 0.893229 10.0013H4.89323ZM10.1849 4.7096C13.1009 4.7096 15.4766 7.08528 15.4766 10.0013H19.4766C19.4766 4.87615 15.31 0.709603 10.1849 0.709603V4.7096ZM15.4766 10.0013C15.4766 12.9231 13.095 15.3094 10.1849 15.3094V19.3094C15.3159 19.3094 19.4766 15.1205 19.4766 10.0013H15.4766ZM13.8307 7.48047H10.7057V11.4805H13.8307V7.48047ZM12.7057 9.48047V6.35547H8.70573V9.48047H12.7057ZM12.7057 6.35547C12.7057 4.9634 11.577 3.83464 10.1849 3.83464V7.83464C9.36783 7.83464 8.70573 7.17254 8.70573 6.35547H12.7057ZM10.1849 3.83464C8.79283 3.83464 7.66406 4.9634 7.66406 6.35547H11.6641C11.6641 7.17254 11.002 7.83464 10.1849 7.83464V3.83464ZM7.66406 6.35547V9.48047H11.6641V6.35547H7.66406ZM9.66406 7.48047H6.53906V11.4805H9.66406V7.48047ZM6.53906 7.48047C5.14699 7.48047 4.01823 8.60923 4.01823 10.0013H8.01823C8.01823 10.8184 7.35613 11.4805 6.53906 11.4805V7.48047ZM4.01823 10.0013C4.01823 11.3934 5.14699 12.5221 6.53906 12.5221V8.52214C7.35613 8.52214 8.01823 9.18423 8.01823 10.0013H4.01823ZM6.53906 12.5221H9.66406V8.52214H6.53906V12.5221ZM7.66406 10.5221V13.6471H11.6641V10.5221H7.66406ZM7.66406 13.6471C7.66406 15.0392 8.79283 16.168 10.1849 16.168V12.168C11.002 12.168 11.6641 12.8301 11.6641 13.6471H7.66406ZM10.1849 16.168C11.577 16.168 12.7057 15.0392 12.7057 13.6471H8.70573C8.70573 12.8301 9.36783 12.168 10.1849 12.168V16.168ZM12.7057 13.6471V10.5221H8.70573V13.6471H12.7057ZM10.7057 12.5221H13.8307V8.52214H10.7057V12.5221ZM13.8307 12.5221C15.2228 12.5221 16.3516 11.3934 16.3516 10.0013H12.3516C12.3516 9.18423 13.0137 8.52214 13.8307 8.52214V12.5221ZM16.3516 10.0013C16.3516 8.60923 15.2228 7.48047 13.8307 7.48047V11.4805C13.0137 11.4805 12.3516 10.8184 12.3516 10.0013H16.3516Z" fill="#3E495A" mask="url(#path-1-inside-1_3177_5467)"/>
</svg>
