<svg width="30" height="30" viewBox="0 0 30 30" fill="none" xmlns="http://www.w3.org/2000/svg">
<rect x="0.5" y="0.5" width="29" height="29" rx="3.5" fill="#F7F8FC"/>
<rect x="0.5" y="0.5" width="29" height="29" rx="3.5" stroke="#B9C4D2"/>
<path fill-rule="evenodd" clip-rule="evenodd" d="M14.0349 16.2592L14.0381 21.8124C14.0382 22.1071 14.1555 22.3897 14.3639 22.5982C14.5724 22.8067 14.8551 22.9239 15.1498 22.9241C15.4444 22.9242 15.727 22.8074 15.9352 22.5991C16.1434 22.3909 16.2603 22.1083 16.2602 21.8137L16.256 16.2594L21.8097 16.2631C21.9555 16.2632 22.0999 16.2345 22.2347 16.1787C22.3694 16.1229 22.4918 16.0412 22.5948 15.9381C22.6979 15.8349 22.7796 15.7125 22.8353 15.5778C22.8911 15.443 22.9197 15.2986 22.9195 15.1527C22.9194 15.0068 22.8906 14.8624 22.8347 14.7276C22.7787 14.5928 22.6968 14.4703 22.5936 14.3672C22.4903 14.264 22.3678 14.1821 22.233 14.1263C22.0982 14.0704 21.9537 14.0416 21.8079 14.0416L16.2552 14.0389L16.2521 8.48575C16.2546 8.33829 16.2278 8.19177 16.1731 8.05473C16.1184 7.91769 16.037 7.79288 15.9336 7.68759C15.8302 7.58229 15.7069 7.49862 15.5709 7.44145C15.4349 7.38427 15.2889 7.35475 15.1414 7.3546C14.9939 7.35444 14.8479 7.38366 14.7119 7.44055C14.5759 7.49744 14.4526 7.58086 14.3493 7.68594C14.2459 7.79102 14.1645 7.91566 14.1099 8.05258C14.0552 8.1895 14.0284 8.33597 14.031 8.48343L14.0347 14.0382L8.48047 14.035C8.33301 14.0324 8.18654 14.0592 8.04962 14.1139C7.91269 14.1685 7.78806 14.2499 7.68298 14.3533C7.5779 14.4566 7.49448 14.5799 7.43759 14.7159C7.3807 14.8519 7.35148 14.9979 7.35164 15.1454C7.35179 15.2929 7.38131 15.4389 7.43849 15.5749C7.49566 15.7109 7.57933 15.8342 7.68463 15.9376C7.78992 16.041 7.91473 16.1224 8.05177 16.1771C8.1888 16.2318 8.33533 16.2586 8.48278 16.2561L14.0349 16.2592Z" fill="#778393"/>
</svg>
