<svg width="4" height="18" viewBox="0 0 4 18" fill="none" xmlns="http://www.w3.org/2000/svg">
<path d="M1.981 14.0881C2.24416 14.083 2.5057 14.1299 2.75033 14.2259C2.99496 14.3219 3.21775 14.4651 3.40569 14.6472C3.59362 14.8293 3.74291 15.0466 3.84482 15.2865C3.94674 15.5263 3.99923 15.7838 3.99923 16.0439C3.99923 16.304 3.94674 16.5615 3.84482 16.8013C3.74291 17.0411 3.59362 17.2584 3.40569 17.4405C3.21775 17.6227 2.99496 17.7659 2.75033 17.8619C2.5057 17.9579 2.24416 18.0047 1.981 17.9996C1.46282 17.9897 0.969244 17.7793 0.606301 17.4137C0.243358 17.0481 0.0399954 16.5564 0.039896 16.0442C0.0397966 15.5321 0.242968 15.0403 0.60577 14.6746C0.968571 14.3088 1.46282 14.0983 1.981 14.0881ZM1.981 7.04369C2.24426 7.0386 2.5059 7.08544 2.75062 7.18147C2.99534 7.27751 3.21823 7.42081 3.40623 7.60299C3.59423 7.78517 3.74358 8.00258 3.84553 8.24249C3.94749 8.48239 4 8.73998 4 9.00019C4 9.26039 3.94749 9.51798 3.84553 9.75789C3.74358 9.9978 3.59423 10.2152 3.40623 10.3974C3.21823 10.5796 2.99534 10.7229 2.75062 10.8189C2.5059 10.9149 2.24426 10.9618 1.981 10.9567C1.46262 10.9468 0.968853 10.7363 0.605769 10.3706C0.242685 10.0048 0.0392445 9.51292 0.0391451 9.00056C0.0390457 8.4882 0.242296 7.99623 0.605238 7.63034C0.96818 7.26445 1.46262 7.05382 1.981 7.04369ZM1.981 -8.83647e-08C2.37262 0.000148262 2.7554 0.115043 3.08095 0.330157C3.4065 0.545271 3.66019 0.850945 3.80996 1.20853C3.95972 1.56611 3.99883 1.95955 3.92233 2.3391C3.84584 2.71865 3.65718 3.06726 3.38021 3.34086C3.10324 3.61445 2.75039 3.80075 2.36628 3.8762C1.98218 3.95164 1.58406 3.91285 1.22226 3.76471C0.860461 3.61658 0.551236 3.36576 0.333678 3.04397C0.116121 2.72218 8.51349e-07 2.34387 6.29826e-07 1.95687C6.4104e-07 1.69999 0.051201 1.44487 0.150679 1.20755C0.250157 0.970219 0.395965 0.754578 0.579777 0.572935C0.763588 0.391292 0.981804 0.247205 1.22197 0.148901C1.46213 0.0505965 1.71953 -9.98082e-08 1.97948 -8.84312e-08L1.981 -8.83647e-08Z" fill="#3E495A"/>
</svg>
