<svg width="16" height="18" viewBox="0 0 16 18" fill="none" xmlns="http://www.w3.org/2000/svg">
<path d="M15.04 3.27273H12.16V2.29091C12.16 1.68332 11.924 1.10062 11.5039 0.670992C11.0838 0.241363 10.5141 0 9.92 0H6.08C5.48592 0 4.91616 0.241363 4.49608 0.670992C4.076 1.10062 3.84 1.68332 3.84 2.29091V3.27273H0.96C0.705392 3.27273 0.461212 3.37617 0.281178 3.56029C0.101143 3.74442 0 3.99415 0 4.25455C0 4.51494 0.101143 4.76467 0.281178 4.9488C0.461212 5.13292 0.705392 5.23636 0.96 5.23636H1.28V16.3636C1.28 16.7976 1.44857 17.2138 1.74863 17.5207C2.04869 17.8276 2.45565 18 2.88 18H13.12C13.5443 18 13.9513 17.8276 14.2514 17.5207C14.5514 17.2138 14.72 16.7976 14.72 16.3636V5.23636H15.04C15.2946 5.23636 15.5388 5.13292 15.7188 4.9488C15.8989 4.76467 16 4.51494 16 4.25455C16 3.99415 15.8989 3.74442 15.7188 3.56029C15.5388 3.37617 15.2946 3.27273 15.04 3.27273ZM5.76 2.29091C5.76 2.20411 5.79371 2.12087 5.85373 2.05949C5.91374 1.99812 5.99513 1.96364 6.08 1.96364H9.92C10.0049 1.96364 10.0863 1.99812 10.1463 2.05949C10.2063 2.12087 10.24 2.20411 10.24 2.29091V3.27273H5.76V2.29091ZM12.8 16.0364H3.2V5.23636H12.8V16.0364ZM7.04 7.85455V13.0909C7.04 13.3513 6.93886 13.601 6.75882 13.7852C6.57879 13.9693 6.33461 14.0727 6.08 14.0727C5.82539 14.0727 5.58121 13.9693 5.40118 13.7852C5.22114 13.601 5.12 13.3513 5.12 13.0909V7.85455C5.12 7.59415 5.22114 7.34442 5.40118 7.16029C5.58121 6.97617 5.82539 6.87273 6.08 6.87273C6.33461 6.87273 6.57879 6.97617 6.75882 7.16029C6.93886 7.34442 7.04 7.59415 7.04 7.85455ZM10.88 7.85455V13.0909C10.88 13.3513 10.7789 13.601 10.5988 13.7852C10.4188 13.9693 10.1746 14.0727 9.92 14.0727C9.66539 14.0727 9.42121 13.9693 9.24118 13.7852C9.06114 13.601 8.96 13.3513 8.96 13.0909V7.85455C8.96 7.59415 9.06114 7.34442 9.24118 7.16029C9.42121 6.97617 9.66539 6.87273 9.92 6.87273C10.1746 6.87273 10.4188 6.97617 10.5988 7.16029C10.7789 7.34442 10.88 7.59415 10.88 7.85455Z" fill="#5A677A"/>
</svg>
